<svg xmlns="http://www.w3.org/2000/svg" viewBox="0 0 29.997 29.996">
  <defs>
    <style>
      .cls-1 {
        fill: #719e3b;
      }
    </style>
  </defs>
  <g id="_26121e75a36e266f93dc10674aa9c21d" data-name="26121e75a36e266f93dc10674aa9c21d" transform="translate(0 -0.002)">
    <g id="Group" transform="translate(0 30)">
      <path id="Shape" class="cls-1" d="M-22.8,30a.517.517,0,0,0,.338-.131,15.03,15.03,0,0,0,1.015-1.834l.856-1.692.9-.147.891-.14.435.463a1.991,1.991,0,0,1,.592.949,3.494,3.494,0,0,0,.78,1.324,2.493,2.493,0,0,0,.769.569c.039,0,.064-.258.064-.674a2.853,2.853,0,0,1,.041-.674l.02,0c.045.009.206.042.379.084a3.183,3.183,0,0,0,.75.085,3.668,3.668,0,0,0,1.051-.149.121.121,0,0,1,.031-.005c.067,0,.074.123.074.65,0,.592.041.68.065.68a2.5,2.5,0,0,0,.827-.639,4.047,4.047,0,0,0,.751-1.354,1.1,1.1,0,0,1,.375-.557,6.133,6.133,0,0,0,.464-.486l.158-.2.752.094c.37.048.811.109.909.129.146.03.25.207,1.009,1.723a11.736,11.736,0,0,0,1,1.811A.545.545,0,0,0-7.169,30a.493.493,0,0,0,.247-.066.588.588,0,0,0,.322-.5,13.666,13.666,0,0,0-.967-2.121c-.773-1.549-.995-1.945-1.132-2.016a5.529,5.529,0,0,0-1-.187l-.025,0h-.008c-.562-.071-.731-.093-.765-.147a.084.084,0,0,1,0-.072,4.976,4.976,0,0,0,.282-1.852,2.757,2.757,0,0,0-.152-1.307,4.069,4.069,0,0,0-.358-.761,3.683,3.683,0,0,0-1.109-1.049c-.147-.072-.2-.1-.2-.129s.027-.047.081-.088a4.67,4.67,0,0,0,.9-.8c.111-.14.245-.257.293-.257s1.2.249,2.511.545l2.428.539,1.161,3.193.023.066c1.235,3.391,1.235,3.391,1.66,3.391h.018A.543.543,0,0,0-2.4,25.9a65.874,65.874,0,0,0-2.616-7.155,21.567,21.567,0,0,0-2.727-.685,11.9,11.9,0,0,1-2.564-.662c.012-.05.056-.353.088-.621a1.318,1.318,0,0,1,.123-.545c.035,0,1.384.268,3.009.6a27.3,27.3,0,0,0,2.974.54.382.382,0,0,0,.153-.025A16.813,16.813,0,0,0-1.883,14.45C-.141,11.841,0,11.612,0,11.385a.523.523,0,0,0-.417-.545.611.611,0,0,0-.2-.044c-.289,0-.6.471-2.111,2.733l0,.007c-.91,1.367-1.73,2.572-1.754,2.579-.1,0-5.683-1.128-5.748-1.16a.979.979,0,0,1-.182-.4c-.065-.207-.172-.52-.258-.72a1.935,1.935,0,0,1-.14-.387l.321-.154.478-.228.045-.022,1.4-.669.208-.1c3.394-1.607,3.394-1.607,3.473-1.76l.009-.017C-4.73,10.228-1.789.761-1.789.569A.617.617,0,0,0-2.376,0a.625.625,0,0,0-.545.392c-.045.119-.728,2.27-1.507,4.764-.8,2.547-1.448,4.571-1.484,4.606-.075.075-5.508,2.66-5.59,2.66a.855.855,0,0,1-.241-.187l-.194-.187.417-.223a4.53,4.53,0,0,0,2.458-3.4,7.8,7.8,0,0,0-.165-2.737C-9.952,2.888-11.8.71-13.932.135A4.453,4.453,0,0,0-14.988.03a4.453,4.453,0,0,0-1.056.105c-2.133.575-3.98,2.753-4.705,5.549a7.8,7.8,0,0,0-.164,2.737,4.53,4.53,0,0,0,2.458,3.4l.417.223-.193.187a.857.857,0,0,1-.24.187c-.082,0-5.516-2.586-5.591-2.66-.035-.035-.715-2.144-1.484-4.605C-26.325,2.668-27,.527-27.049.4A.674.674,0,0,0-27.6,0a.617.617,0,0,0-.586.616c0,.168,2.981,9.694,3.1,9.9a14.642,14.642,0,0,0,2.974,1.535l.524.248c1.356.646,2.377,1.129,2.4,1.14l0,0a1.109,1.109,0,0,1-.115.389c-.09.215-.207.544-.264.726a.97.97,0,0,1-.182.4c-.152.084-5.509,1.121-5.79,1.121l-.013,0c-.025-.025-.878-1.291-1.689-2.507-.869-1.311-1.7-2.519-1.778-2.585a.569.569,0,0,0-.38-.162.627.627,0,0,0-.236.051.547.547,0,0,0-.364.568,31.822,31.822,0,0,0,1.906,3.011c1.585,2.372,1.914,2.832,2.071,2.9a.376.376,0,0,0,.153.025,28.019,28.019,0,0,0,2.974-.541c1.681-.341,2.975-.6,3.01-.6a1.313,1.313,0,0,1,.123.545c.035.292.076.574.087.621a11.608,11.608,0,0,1-2.563.662,22.055,22.055,0,0,0-2.728.686,21.084,21.084,0,0,0-1.4,3.527c-.732,2.023-1.244,3.473-1.244,3.527a.766.766,0,0,0,.288.51.649.649,0,0,0,.287.062.588.588,0,0,0,.422-.15,32.653,32.653,0,0,0,1.3-3.328l1.156-3.175,2.428-.539c1.314-.3,2.464-.545,2.511-.545s.2.129.31.281a3.493,3.493,0,0,0,.493.481l.092.07.064.049.008.006c.215.163.3.23.3.275,0,.028-.043.048-.115.08l-.077.036a3.707,3.707,0,0,0-1.109,1.049,4.031,4.031,0,0,0-.358.761,2.838,2.838,0,0,0-.158,1.248,3.986,3.986,0,0,0,.135,1.26l.043.153v0l.043.156.046.162,0,.01.023.082.005.019a.084.084,0,0,1-.006.068c-.041.06-.231.1-.809.19a7.486,7.486,0,0,0-1,.217A8.358,8.358,0,0,0-22.408,27.3c-1,2.005-1.066,2.187-.862,2.438A.609.609,0,0,0-22.8,30Zm7.794-9.589a7.144,7.144,0,0,1,1.689.189,2.35,2.35,0,0,1,1.789,1.476,4.242,4.242,0,0,1-.264,2.737,4.074,4.074,0,0,1-2.563,2.085,2.377,2.377,0,0,1-.6.107,2.146,2.146,0,0,1-.494-.077,4.6,4.6,0,0,1-2.076-1.254,3.742,3.742,0,0,1-1.032-2.508,2.176,2.176,0,0,1,.516-1.793,3.414,3.414,0,0,1,2.388-.931A6.145,6.145,0,0,1-15.006,20.408Zm1.569-7.908a.532.532,0,0,1,.132.011,4.142,4.142,0,0,1,1.185,1.16,4.436,4.436,0,0,1,.71,2.525c0,1.836-.895,2.73-2.992,2.988a3.049,3.049,0,0,1-.327.014,9.1,9.1,0,0,1-1.534-.13,3.158,3.158,0,0,1-1.56-.768,2.663,2.663,0,0,1-.745-2.1,4.428,4.428,0,0,1,.71-2.525,4.147,4.147,0,0,1,1.184-1.16.529.529,0,0,1,.132-.012c.115,0,.291.012.5.035a8.378,8.378,0,0,0,1.056.061,8.378,8.378,0,0,0,1.056-.061C-13.733,12.512-13.552,12.5-13.437,12.5ZM-14.988,1.26a2.264,2.264,0,0,1,1.1.152,4.4,4.4,0,0,1,1.537,1.048A7.676,7.676,0,0,1-10.26,6.615a5.009,5.009,0,0,1-.064,2c-.431,1.593-1.9,2.594-4.018,2.749-.222.015-.44.023-.646.023a7.5,7.5,0,0,1-1.5-.146A3.992,3.992,0,0,1-19.3,9.445a4.884,4.884,0,0,1-.114-4.037,7.431,7.431,0,0,1,1.789-2.947A4.4,4.4,0,0,1-16.09,1.412,2.264,2.264,0,0,1-14.988,1.26Z" transform="translate(0 -0.002) rotate(180)"/>
    </g>
  </g>
</svg>
