<svg xmlns="http://www.w3.org/2000/svg" viewBox="0 0 45.072 29.099">
  <defs>
    <style>
      .cls-1 {
        fill: none;
        stroke: #719e3b;
        stroke-miterlimit: 10;
      }
    </style>
  </defs>
  <g id="signos-de-codigo-simbolo-de-interfaz" transform="translate(0.536 0.599)">
    <path id="Path" class="cls-1" d="M5.435,19.1a1.936,1.936,0,1,0,3.26-2.09L4.23,10,8.7,2.987A1.936,1.936,0,1,0,5.435.9L.3,8.954a1.947,1.947,0,0,0,0,2.09Z" transform="translate(0 4)"/>
    <path id="Path-2" data-name="Path" class="cls-1" d="M.893,19.694A1.929,1.929,0,0,0,3.565,19.1L8.7,11.045a1.947,1.947,0,0,0,0-2.09L3.565.9A1.936,1.936,0,1,0,.3,2.987L4.77,10,.3,17.013A1.945,1.945,0,0,0,.893,19.694Z" transform="translate(35 4)"/>
    <path id="Path-3" data-name="Path" class="cls-1" d="M1.127,27.811A2.044,2.044,0,0,0,1.984,28a1.993,1.993,0,0,0,1.791-1.086L15.8,2.74A1.882,1.882,0,0,0,14.873.188a2.018,2.018,0,0,0-2.647.9L.2,25.26A1.882,1.882,0,0,0,1.127,27.811Z" transform="translate(14)"/>
  </g>
</svg>
