<svg xmlns="http://www.w3.org/2000/svg" viewBox="0 0 91.281 33.448">
  <defs>
    <style>
      .cls-1 {
        fill: #00acd7;
      }
    </style>
  </defs>
  <g id="golang-official" transform="translate(-0.316 -0.377)">
    <g id="g4160" transform="translate(7 8)">
      <g id="g4162">
        <g id="g4164">
          <path id="path4166" class="cls-1" d="M.176,1.48c-.176,0-.22-.08-.132-.2L.966.2A.656.656,0,0,1,1.449,0H17.122c.176,0,.22.12.132.24l-.746,1.04a.684.684,0,0,1-.439.24Z" transform="translate(0.351 0.16)"/>
        </g>
      </g>
    </g>
    <g id="g4168" transform="translate(0 12)">
      <g id="g4170">
        <g id="g4172">
          <path id="path4174" class="cls-1" d="M.18,1.48c-.18,0-.225-.08-.135-.2L.992.2a.683.683,0,0,1,.5-.2H22.053c.18,0,.271.12.225.24l-.361.96a.4.4,0,0,1-.406.24L.18,1.48Z" transform="translate(0.316 0.24)"/>
        </g>
      </g>
    </g>
    <g id="g4176" transform="translate(10 16)">
      <g id="g4178">
        <g id="g4180">
          <path id="path4182" class="cls-1" d="M.183,1.48C0,1.48-.046,1.36.046,1.24l.642-1A.627.627,0,0,1,1.146,0h9.167a.257.257,0,0,1,.275.28l-.092.96a.326.326,0,0,1-.321.28L.183,1.48Z" transform="translate(0.412 0.32)"/>
        </g>
      </g>
    </g>
    <g id="g4184" transform="translate(25)">
      <g id="CXHf1q_3_">
        <g id="g4187">
          <g id="g4189">
            <path id="path4191" class="cls-1" d="M32.568,9.343c-2.777.7-4.672,1.221-7.405,1.918-.661.174-.705.218-1.278-.436a5.888,5.888,0,0,0-2.072-1.656,7.736,7.736,0,0,0-7.978.654,9.245,9.245,0,0,0-4.5,8.282,6.858,6.858,0,0,0,5.951,6.844,8.182,8.182,0,0,0,7.493-2.877c.4-.479.749-1,1.19-1.613H15.465c-.926,0-1.146-.567-.837-1.308.573-1.351,1.631-3.618,2.248-4.751a1.19,1.19,0,0,1,1.1-.7H34.022c-.088,1.177-.088,2.354-.264,3.531a18.481,18.481,0,0,1-3.614,8.544,18.4,18.4,0,0,1-12.562,7.41A15.747,15.747,0,0,1,5.724,30.31a13.66,13.66,0,0,1-5.6-9.677A16.976,16.976,0,0,1,3.872,7.861,19.593,19.593,0,0,1,16.214.32,15.331,15.331,0,0,1,27.9,2.456,13.7,13.7,0,0,1,33.009,8.6c.264.392.088.61-.441.741Z" transform="translate(0.095 0.377)"/>
          </g>
          <g id="g4193" transform="translate(31.296 0.436)">
            <path id="path4195" class="cls-1" d="M15.737,33.044h0a18.815,18.815,0,0,1-5.724-.97,15.625,15.625,0,0,1-5.031-2.866A13.6,13.6,0,0,1,.222,20.8a16.1,16.1,0,0,1,.363-6.975,18.264,18.264,0,0,1,3.207-6.19A18.472,18.472,0,0,1,16.134.353,22.475,22.475,0,0,1,19.976,0,15.161,15.161,0,0,1,28.7,2.576a14.834,14.834,0,0,1,4.2,4.174A13.44,13.44,0,0,1,34.912,12.3a16.739,16.739,0,0,1-5.069,14.777,20.307,20.307,0,0,1-10.579,5.579c-.784.144-1.574.212-2.338.279-.393.034-.8.069-1.189.114ZM18.915,7.991A8.126,8.126,0,0,0,17.1,8.2a9.524,9.524,0,0,0-7.714,7.585,7.19,7.19,0,0,0,4.055,8.239,8.324,8.324,0,0,0,3.308.709,8.582,8.582,0,0,0,3.877-.971,9.542,9.542,0,0,0,5.6-8.326c-.013-.166-.022-.318-.031-.466A6.9,6.9,0,0,0,26.1,14,7.225,7.225,0,0,0,18.915,7.991Z" transform="translate(0.219 0.345)"/>
          </g>
        </g>
      </g>
    </g>
  </g>
</svg>
