<svg id="JS-icon" xmlns="http://www.w3.org/2000/svg" viewBox="0 0 65 65">
  <defs>
    <style>
      .cls-1 {
        fill: #f7df1e;
      }
    </style>
  </defs>
  <rect id="Rectangle" class="cls-1" width="65" height="65"/>
  <path id="Shape" d="M32.84,30a13.6,13.6,0,0,1-7.047-1.77,10.91,10.91,0,0,1-4.126-4.391l4.982-2.845A6.74,6.74,0,0,0,32.7,24.653a5.126,5.126,0,0,0,3.034-.839,2.57,2.57,0,0,0,1.129-2.132c0-2.082-1.68-2.8-4.463-4l-1.533-.646a14.385,14.385,0,0,1-5.341-3.394A8.084,8.084,0,0,1,23.5,7.958C23.5,3.272,27.194,0,32.481,0c4.1,0,6.79,1.488,8.72,4.824L36.427,7.836C35.386,6,34.243,5.254,32.481,5.254a2.654,2.654,0,0,0-2.934,2.582c0,1.852,1.207,2.568,3.769,3.659l1.533.645a17.214,17.214,0,0,1,6.029,3.668A7.91,7.91,0,0,1,43,21.6a7.613,7.613,0,0,1-2.9,6.232A11.647,11.647,0,0,1,32.84,30ZM9.2,29.989c-5.416,0-7.991-2.993-9.2-5.5l4.99-2.969c.915,1.594,1.778,3.1,3.946,3.1,2.333,0,3.285-1.1,3.285-3.786V.344h6.131V20.912c0,3-.855,5.318-2.54,6.878A9.41,9.41,0,0,1,9.2,29.989Z" transform="translate(17 30)"/>
</svg>
