<svg xmlns="http://www.w3.org/2000/svg" viewBox="0 0 45 31">
  <defs>
    <style>
      .cls-1 {
        fill: none;
        stroke: #719e3b;
        stroke-miterlimit: 10;
      }
    </style>
  </defs>
  <g id="cloud-upload-alt" transform="translate(0.5 0.5)">
    <path id="Shape" class="cls-1" d="M35.2,30H9.9A9.785,9.785,0,0,1,0,20.357a9.679,9.679,0,0,1,6.614-9.1l0-.048c-.006-.161-.012-.328-.012-.494A10.507,10.507,0,0,1,9.821,3.137,11.079,11.079,0,0,1,17.6,0a11.21,11.21,0,0,1,5.582,1.48,10.931,10.931,0,0,1,3.953,3.89A6.677,6.677,0,0,1,30.8,4.286a6.524,6.524,0,0,1,6.6,6.429,6.305,6.305,0,0,1-.44,2.317,8.855,8.855,0,0,1,5.025,2.941A8.449,8.449,0,0,1,44,21.429,8.7,8.7,0,0,1,35.2,30ZM19.8,7.945a1.1,1.1,0,0,0-.777.311l-7.247,7.058a1.039,1.039,0,0,0-.247,1.153,1.081,1.081,0,0,0,1.024.676h4.5v7.5a1.087,1.087,0,0,0,1.1,1.071h3.3a1.087,1.087,0,0,0,1.1-1.071v-7.5h4.5a1.081,1.081,0,0,0,1.022-.678,1.037,1.037,0,0,0-.245-1.151L20.577,8.257A1.1,1.1,0,0,0,19.8,7.945Z"/>
  </g>
</svg>
