<svg xmlns="http://www.w3.org/2000/svg" viewBox="0 0 46.626 73.616">
  <defs>
    <style>
      .cls-1 {
        fill: #ec2025;
      }

      .cls-2 {
        fill: #0d8ac7;
      }
    </style>
  </defs>
  <g id="java-icon" transform="translate(-2 -0.175)">
    <g id="Group_9" data-name="Group 9" transform="translate(2)">
      <g id="Group_8" data-name="Group 8" transform="translate(0 50.899)">
        <path id="Shape" class="cls-1" d="M4.083,13.945a5.483,5.483,0,0,1-2.35-.536,2.624,2.624,0,0,1-1.284-1.3A4.566,4.566,0,0,1,.1,9.191,3.653,3.653,0,0,1,1.9,6.776a6.839,6.839,0,0,1,2.968-.985c.927-.1,1.852-.165,2.75-.2l.107-.005.081,0a.127.127,0,0,0,.134-.137A5.042,5.042,0,0,0,7.623,3.12,1.923,1.923,0,0,0,5.9,2.03a7.262,7.262,0,0,0-.808-.045,10.134,10.134,0,0,0-2.839.452c-.236.069-.469.144-.717.224l-.394.126L1.007,2.3c-.1-.354-.185-.684-.278-1.02-.029-.1.018-.149.1-.191.052-.024.1-.049.155-.074A3.374,3.374,0,0,1,1.315.87,13.493,13.493,0,0,1,5.985,0l.231,0a5.782,5.782,0,0,1,2.2.428,3.585,3.585,0,0,1,2.2,2.8,4.049,4.049,0,0,1,.06.767q0,2.783,0,5.566v.232q0,1.739,0,3.478c0,.037,0,.071,0,.1,0,.108,0,.168-.028.2s-.092.035-.233.035H8.8c-.249,0-.252,0-.3-.246s-.094-.493-.139-.733q-.032-.174-.065-.346a.133.133,0,0,0-.055-.014.12.12,0,0,0-.088.052.33.33,0,0,1-.025.026A6.156,6.156,0,0,1,4.752,13.9,5.423,5.423,0,0,1,4.083,13.945ZM7.636,7.334c-.608,0-1.224.039-1.82.077l-.072,0A5.275,5.275,0,0,0,4.1,7.764a1.911,1.911,0,0,0-1.249,1.5,3.259,3.259,0,0,0-.049.582,1.935,1.935,0,0,0,1.516,1.969,2.411,2.411,0,0,0,.566.066,2.93,2.93,0,0,0,.643-.075A5.715,5.715,0,0,0,7.818,10.59a.327.327,0,0,0,.116-.3q0-.5,0-1V8.939q0-.231,0-.462c0-.308,0-.616,0-.923,0-.215-.006-.22-.22-.22Z" transform="translate(33.059 4.307)"/>
        <path id="Shape-2" data-name="Shape" class="cls-1" d="M4.293,13.948a7.614,7.614,0,0,1-1.035-.1l-.034,0a5.114,5.114,0,0,1-1.209-.308,2.859,2.859,0,0,1-1.669-1.66,4.659,4.659,0,0,1-.265-2.6A3.684,3.684,0,0,1,1.9,6.773a6.879,6.879,0,0,1,2.971-.981c.945-.1,1.871-.165,2.751-.2l.066,0c.03,0,.06,0,.09,0,.115,0,.163-.049.167-.17A6.5,6.5,0,0,0,7.8,3.613,1.951,1.951,0,0,0,5.894,2.028a7.643,7.643,0,0,0-.78-.04,10.3,10.3,0,0,0-2.868.453c-.341.1-.672.21-.95.308a.275.275,0,0,1-.089.019c-.055,0-.086-.034-.109-.121C.99,2.229.874,1.783.742,1.338.7,1.184.763,1.117.895,1.054A7.99,7.99,0,0,1,2.124.6,13.45,13.45,0,0,1,5.957,0l.209,0A5.778,5.778,0,0,1,8.4.426a3.612,3.612,0,0,1,2.261,3.216,2.519,2.519,0,0,1,.007.262c0,.026,0,.052,0,.077q0,4.64,0,9.28c0,.037,0,.07,0,.1,0,.122,0,.183-.028.213s-.072.03-.162.03H9.333c-.22,0-.4,0-.563,0h-.02c-.141,0-.221-.034-.246-.211-.03-.23-.078-.462-.124-.686-.018-.086-.035-.169-.051-.252,0-.012,0-.024-.005-.037a.211.211,0,0,0-.067-.157.139.139,0,0,0-.1.047l-.011.01a6.552,6.552,0,0,1-3.335,1.586A3.028,3.028,0,0,1,4.293,13.948ZM7.676,7.332h0c-.615,0-1.238.038-1.84.075l-.079,0a5.031,5.031,0,0,0-1.786.41A1.856,1.856,0,0,0,2.894,9.07a2.6,2.6,0,0,0-.071,1.1,1.875,1.875,0,0,0,1.394,1.613,2.275,2.275,0,0,0,.668.1,2.851,2.851,0,0,0,.6-.068,5.556,5.556,0,0,0,2.348-1.238.33.33,0,0,0,.109-.3c0-.295,0-.594,0-.883q0-.221,0-.441V8.672c0-.365,0-.739,0-1.109,0-.227,0-.229-.245-.23H7.676Z" transform="translate(7.568 4.307)"/>
        <path id="Path" class="cls-1" d="M6.24,10.5c.521-1.446.993-2.891,1.414-4.351A39.288,39.288,0,0,0,8.739,1.5Q8.844.845,8.9.184c.007-.1.01-.18.149-.18.918,0,1.834,0,2.783,0-.106.522-.2,1.012-.307,1.5-.5,2.2-1.05,4.394-1.743,6.546A32.987,32.987,0,0,1,7.79,13.064a.426.426,0,0,1-.446.278c-.962-.014-1.923-.005-2.885-.007-.274,0-.238.044-.323-.224Q2.091,6.68.049.246C.027.18-.018.115.007.038.056-.011.122.005.182.005,1.038,0,1.9.008,2.753,0a.27.27,0,0,1,.313.212c1,3.057,2,6.111,2.85,9.213.081.3.149.6.223.9C6.154,10.379,6.148,10.447,6.24,10.5Z" transform="translate(19.915 4.698)"/>
        <path id="Path-2" data-name="Path" class="cls-1" d="M0,21.348a4.5,4.5,0,0,0,.771-.374A4.427,4.427,0,0,0,2.579,18.5a7,7,0,0,0,.329-2.154q0-4.622,0-9.244V.384c0-.051,0-.1,0-.153C2.916.01,2.916.005,3.133,0,3.7,0,4.262,0,4.826,0c.272,0,.543.006.815,0,.143,0,.218.038.2.192a2.432,2.432,0,0,0,0,.247q0,7.856,0,15.714a8.226,8.226,0,0,1-.882,3.808A5.674,5.674,0,0,1,1.6,22.84c-.244.083-.245.081-.414-.114C.8,22.272.407,21.818,0,21.348Z" transform="translate(0 0)"/>
      </g>
      <g id="Group_6" data-name="Group 6" transform="translate(1.992)">
        <path id="Path-3" data-name="Path" class="cls-1" d="M6.889,28.4c-.294-.344-.646-.63-.96-.955A44.8,44.8,0,0,1,1.448,22.23a11.141,11.141,0,0,1-1.2-2.1,3.026,3.026,0,0,1-.063-2.245,6.533,6.533,0,0,1,1.107-1.927,20.49,20.49,0,0,1,2.619-2.65C5.506,11.91,7.175,10.6,8.83,9.266a10.562,10.562,0,0,0,3.1-3.833A8.438,8.438,0,0,0,12.585.2a.648.648,0,0,1-.014-.111.593.593,0,0,1,.005-.078c.121-.052.151.06.2.117a2.569,2.569,0,0,1,.469.944,8.645,8.645,0,0,1-1.62,8.242,22.651,22.651,0,0,1-1.922,1.9c-1.444,1.374-2.932,2.7-4.295,4.158A14.777,14.777,0,0,0,3.57,17.691a6.045,6.045,0,0,0-.734,1.652,3.671,3.671,0,0,0,.1,1.864,15.02,15.02,0,0,0,1.615,3.614c.49.855,1.042,1.671,1.592,2.491a8.419,8.419,0,0,1,.745,1.077V28.4Z" transform="translate(12.888 0.175)"/>
        <path id="Path-4" data-name="Path" class="cls-2" d="M36.281.452a1.445,1.445,0,0,1,.59.5.586.586,0,0,1-.046.825,3.638,3.638,0,0,1-.918.737A13.692,13.692,0,0,1,32.351,3.9a36.1,36.1,0,0,1-5.279.935c-1.858.2-3.721.311-5.588.389-2.546.1-5.092.15-7.638.106-1.779-.032-3.557-.089-5.331-.216a41.726,41.726,0,0,1-5.894-.737A8.64,8.64,0,0,1,.9,3.847a2.684,2.684,0,0,1-.562-.323.729.729,0,0,1-.256-.969,1.932,1.932,0,0,1,.722-.814A6.573,6.573,0,0,1,2.563.908,19.311,19.311,0,0,1,6.606.058a7.534,7.534,0,0,1,1.77-.01C7.925.128,7.47.2,7.02.289a11.382,11.382,0,0,0-2.82.836,1.949,1.949,0,0,0-.653.454c-.31.36-.276.617.125.87a4.263,4.263,0,0,0,1.287.476,27.825,27.825,0,0,0,3.212.542c1.688.21,3.386.335,5.084.435.537.031,1.074.043,1.612.044q3.149,0,6.295-.117c2.148-.081,4.3-.188,6.437-.375a48.3,48.3,0,0,0,5.586-.736,12.168,12.168,0,0,0,2.137-.6,3.83,3.83,0,0,0,.613-.31C36.537,1.425,36.626,1.115,36.281.452Z" transform="translate(0.231 44.51)"/>
        <path id="Path-5" data-name="Path" class="cls-1" d="M11.576.059c-.182.111-.365.222-.546.335A45.239,45.239,0,0,0,6.192,3.725,14.693,14.693,0,0,0,4.161,5.673,5.887,5.887,0,0,0,3.2,7.207a2.556,2.556,0,0,0,.015,2.055,7.982,7.982,0,0,0,.678,1.224c.433.668.905,1.312,1.287,2.012a6.861,6.861,0,0,1,.671,1.679,2.893,2.893,0,0,1-.212,1.985,6.483,6.483,0,0,1-1.5,1.94,13.262,13.262,0,0,1-2.1,1.581.224.224,0,0,1-.191.059c.079-.109.147-.208.22-.3a10.176,10.176,0,0,0,1.05-1.665,2.457,2.457,0,0,0-.036-2.321,7.952,7.952,0,0,0-.618-1c-.381-.536-.768-1.067-1.152-1.6A6.758,6.758,0,0,1,.057,9.881,5.1,5.1,0,0,1,.689,6.569,8.6,8.6,0,0,1,2.9,4.079,18.864,18.864,0,0,1,6.883,1.693,31.488,31.488,0,0,1,11.365.043c.06-.018.122-.029.183-.043C11.558.02,11.566.04,11.576.059Z" transform="translate(20.092 10.737)"/>
        <path id="Path-6" data-name="Path" class="cls-2" d="M17.969,2.424a8.819,8.819,0,0,1-1.114.374,32.4,32.4,0,0,1-5.268,1.157,24.176,24.176,0,0,1-4.212.123,29.742,29.742,0,0,1-3.317-.327,12.853,12.853,0,0,1-2.409-.61A3.956,3.956,0,0,1,.479,2.5a1.026,1.026,0,0,1,0-1.733A3.942,3.942,0,0,1,2.233,0c-.017.131-.126.213-.174.326a.549.549,0,0,0,.172.709,1.758,1.758,0,0,0,.617.3,5.634,5.634,0,0,0,1.321.217c1.8.1,3.6.128,5.409.044a37.165,37.165,0,0,0,3.742-.326A12.413,12.413,0,0,0,14.782.974a.542.542,0,0,1,.469.063A15.674,15.674,0,0,0,17.969,2.424Z" transform="translate(10.355 40.676)"/>
        <path id="Path-7" data-name="Path" class="cls-2" d="M20.343,2.5a10.967,10.967,0,0,1-1.315.414,32.25,32.25,0,0,1-6.139,1.1,29.717,29.717,0,0,1-3.758.058c-.793-.039-1.585-.04-2.377-.091a30.177,30.177,0,0,1-4.41-.55A6.828,6.828,0,0,1,.679,2.87C-.206,2.422-.115,1.757.324,1.153A1.8,1.8,0,0,1,.7.783,4.494,4.494,0,0,1,2.672,0c-.135.151-.243.258-.335.376a.69.69,0,0,0,.245,1.18,3.037,3.037,0,0,0,.787.29,11.073,11.073,0,0,0,1.746.242,46.268,46.268,0,0,0,5.524-.018,59.7,59.7,0,0,0,7.276-.794.579.579,0,0,1,.523.136A4.928,4.928,0,0,0,20.343,2.5Z" transform="translate(8.778 34.94)"/>
        <path id="Path-8" data-name="Path" class="cls-2" d="M26.658,1.963Q25.63,2.585,24.6,3.206a1.158,1.158,0,0,1-.443.112c-2.112.324-4.231.586-6.356.8-1.4.145-2.8.258-4.21.326-1.049.052-2.1.1-3.149.069a68.868,68.868,0,0,1-7.539-.534A11.5,11.5,0,0,1,.85,3.539a2.205,2.205,0,0,1-.623-.29c-.281-.209-.3-.407-.065-.665a2.682,2.682,0,0,1,.709-.51A14.108,14.108,0,0,1,3.347,1.057,23.652,23.652,0,0,1,8.175.025a2.593,2.593,0,0,1,.709,0c-.9.251-1.8.482-2.674.792a11.064,11.064,0,0,0-1.481.623,2.52,2.52,0,0,0-.6.409c-.356.349-.31.607.146.8a4.82,4.82,0,0,0,1.228.292c.989.14,1.985.2,2.983.249,1.407.063,2.815.069,4.224.061,1.332-.007,2.66-.108,3.988-.2,1.277-.088,2.55-.2,3.823-.334q2.252-.234,4.492-.563c.542-.081,1.083-.168,1.625-.25C26.646,1.923,26.652,1.943,26.658,1.963Z" transform="translate(4.49 28.868)"/>
        <path id="Path-9" data-name="Path" class="cls-2" d="M32,0a2.043,2.043,0,0,1-.543.972,6.771,6.771,0,0,1-2.038,1.457,16.654,16.654,0,0,1-4.393,1.431,59.124,59.124,0,0,1-6.271.84,71.143,71.143,0,0,1-7.516.261,52.034,52.034,0,0,1-7.033-.583A30.67,30.67,0,0,1,.355,3.521.75.75,0,0,1,0,3.367c.828.072,1.647.148,2.466.216s1.631.143,2.449.193c3.118.191,6.239.3,9.364.227,1.971-.044,3.937-.145,5.9-.35A39.074,39.074,0,0,0,26.666,2.5,16.045,16.045,0,0,0,31.124.61C31.4.431,31.664.234,32,0Z" transform="translate(7.661 47.589)"/>
        <path id="Path-10" data-name="Path" class="cls-2" d="M1.259.781a2.817,2.817,0,0,1,1.4-.649,4.907,4.907,0,0,1,4.08.81A3.367,3.367,0,0,1,8.243,3.923,3.917,3.917,0,0,1,7.37,6.1,8.9,8.9,0,0,1,4.834,8.326,17.845,17.845,0,0,1,.184,10.259,1.459,1.459,0,0,1,0,10.274c.149-.094.243-.157.341-.216A18.473,18.473,0,0,0,4.522,6.828,6.545,6.545,0,0,0,5.812,4.92a3.207,3.207,0,0,0,.263-1.733A2.706,2.706,0,0,0,3.743.767,6.216,6.216,0,0,0,1.259.781Z" transform="translate(31.421 28.327)"/>
      </g>
      <path id="Path-11" data-name="Path" class="cls-1" d="M.3.47A.868.868,0,0,0,.221.938c0,.067-.02.123-.1.128C.019,1.072,0,1.01,0,.928,0,.682,0,.436,0,.191,0,.113-.023.017.1.007.213,0,.31,0,.359.127.428.308.507.486.59.682A1.105,1.105,0,0,0,.806.273C.838.209.852.135.888.074c.059-.1.165-.072.253-.062S1.22.1,1.22.158V.926c0,.063,0,.132-.086.137-.1.007-.111-.069-.111-.146A2.439,2.439,0,0,0,.995.469,1.243,1.243,0,0,0,.757.923c-.031.064-.049.143-.142.14S.509.979.482.913C.422.766.36.618.3.47Z" transform="translate(45.407 55.598)"/>
      <path id="Path-12" data-name="Path" class="cls-1" d="M.439,0c.1,0,.209,0,.313,0,.055,0,.1.017.108.083S.816.176.762.168C.538.133.531.265.539.426s0,.328,0,.492c0,.079-.016.145-.116.142S.312.991.312.913c0-.175-.005-.349,0-.522C.32.248.3.142.115.168.064.175.005.165,0,.1,0,.013.062,0,.127,0,.231,0,.335,0,.439,0Z" transform="translate(44.61 55.598)"/>
    </g>
  </g>
</svg>
