<svg xmlns="http://www.w3.org/2000/svg" xmlns:xlink="http://www.w3.org/1999/xlink" viewBox="0 0 68 74">
  <defs>
    <style>
      .cls-1 {
        fill: #646464;
      }

      .cls-2 {
        fill: url(#linear-gradient);
      }

      .cls-3 {
        fill: url(#linear-gradient-2);
      }

      .cls-4 {
        fill: rgba(216,216,216,0);
      }
    </style>
    <linearGradient id="linear-gradient" x2="0.745" y2="0.641" gradientUnits="objectBoundingBox">
      <stop offset="0" stop-color="#5a9fd4"/>
      <stop offset="1" stop-color="#306998"/>
    </linearGradient>
    <linearGradient id="linear-gradient-2" x1="0.5" y1="0.823" x2="0.234" y2="0.449" gradientUnits="objectBoundingBox">
      <stop offset="0" stop-color="#ffd43b"/>
      <stop offset="1" stop-color="#ffe873"/>
    </linearGradient>
  </defs>
  <g id="Python-icon" transform="translate(0 0)">
    <g id="Group_4" data-name="Group 4" transform="translate(6 53)">
      <path id="path46" class="cls-1" d="M1.669,15.429h0L0,14.836V1.753A3.745,3.745,0,0,1,1.053.887,7.29,7.29,0,0,1,4.674,0L4.7.023h.057A3.331,3.331,0,0,1,7.7,1.615a6.776,6.776,0,0,1,.984,3.8A5.775,5.775,0,0,1,7.7,8.852a3.627,3.627,0,0,1-3.029,1.591l-.137,0a5.489,5.489,0,0,1-2.87-.911v5.893ZM4.216,1.11a4.4,4.4,0,0,0-1.6.3,2.634,2.634,0,0,0-.951.5V8.4a4.862,4.862,0,0,0,2.491.87c.053,0,.106,0,.157,0C5.94,9.155,6.764,7.823,6.764,5.3c0-2.7-.785-4.112-2.333-4.188C4.359,1.112,4.287,1.11,4.216,1.11Z" transform="translate(0 5.571)"/>
      <path id="path48" class="cls-1" d="M8.248,9.311A9.356,9.356,0,0,1,7.7,13.169,3.886,3.886,0,0,1,5.6,14.88a7.94,7.94,0,0,1-2.718.549l-.271-1.051a12.881,12.881,0,0,0,2.09-.41,2.768,2.768,0,0,0,1.641-1.255A6.389,6.389,0,0,0,6.7,10.088V9.654a8.32,8.32,0,0,1-3.528.775,3.212,3.212,0,0,1-2.135-.775A2.653,2.653,0,0,1,0,7.509V.571L1.641,0V6.984a2.138,2.138,0,0,0,.711,1.724,2.659,2.659,0,0,0,1.84.582A4.557,4.557,0,0,0,6.607,8.4V.252H8.248Z" transform="translate(10.419 5.571)"/>
      <path id="path50" class="cls-1" d="M4.775,13.262c-.2.016-.389.023-.56.023a3.437,3.437,0,0,1-2.248-.662,2.25,2.25,0,0,1-.8-1.832V4.346H0V3.316H1.165V.582L2.864,0V3.316H4.775v1.03H2.864v6.4a1.521,1.521,0,0,0,.514,1.3,2.674,2.674,0,0,0,1.4.36Z" transform="translate(20.837 2.571)"/>
      <path id="path52" class="cls-1" d="M8.248,15.857H6.556V9.442a2.992,2.992,0,0,0-.465-1.684,1.7,1.7,0,0,0-1.49-.8,5.546,5.546,0,0,0-2.91,1.206v7.689H0V.524L1.692,0V6.984a5.965,5.965,0,0,1,3.545-1.16,2.85,2.85,0,0,1,2.177.887,3.093,3.093,0,0,1,.835,2.207v6.939Z" transform="translate(27.783)"/>
      <path id="path54" class="cls-1" d="M4.74,10.286A4.313,4.313,0,0,1,1.166,8.647,5.707,5.707,0,0,1,0,4.986,5.066,5.066,0,0,1,1.262,1.5,4.474,4.474,0,0,1,4.763,0,4.555,4.555,0,0,1,8.289,1.5,5.07,5.07,0,0,1,9.551,4.986,5.633,5.633,0,0,1,8.359,8.647,4.4,4.4,0,0,1,4.74,10.286Zm0-9.163c-1.9.1-2.858,1.4-2.858,3.863a6.079,6.079,0,0,0,.6,2.838A2.42,2.42,0,0,0,4.725,9.252h.05C6.68,9.238,7.646,7.8,7.646,4.975a4.833,4.833,0,0,0-.62-2.554A2.632,2.632,0,0,0,4.74,1.123Z" transform="translate(36.899 5.571)"/>
      <path id="path56" class="cls-1" d="M8.248,10.286H6.542V3.46a2.26,2.26,0,0,0-.689-1.754A2.532,2.532,0,0,0,4.019,1.1a4.153,4.153,0,0,0-2.313.778v8.407H0V1.672A8.465,8.465,0,0,1,2.71.3,8.418,8.418,0,0,1,4.767,0,5.441,5.441,0,0,1,5.911.115,3.313,3.313,0,0,1,7.546.963a2.222,2.222,0,0,1,.7,1.65Z" transform="translate(47.752 5.571)"/>
    </g>
    <path id="text3004" class="cls-1" d="M1.706,2h-.2V0h.315l.41,1.714L2.719,0H3V2H2.787V.374L2.346,2H2.129L1.706.368V2ZM.769,2H.541V.213H0V0H1.309V.213H.769V2Z" transform="translate(65 55)"/>
    <g id="Group_5" data-name="Group 5" transform="translate(10)">
      <path id="path1948" class="cls-2" d="M11.093,36.032H7.061a5.521,5.521,0,0,1-4.083-1.657A8.912,8.912,0,0,1,.826,30.137a21.54,21.54,0,0,1,0-11.816,7.314,7.314,0,0,1,7.328-5.9H24.287V10.949H12.556V6.519c0-1.924.31-3.07,1.071-3.954.864-1,2.388-1.669,4.794-2.09A34.1,34.1,0,0,1,24.027,0H24.2a36.662,36.662,0,0,1,5.942.475,7.7,7.7,0,0,1,4.126,2.038A5.541,5.541,0,0,1,36,6.519V17.59A5.893,5.893,0,0,1,30.138,23.5H18.421a7.467,7.467,0,0,0-7.328,7.223v5.311Zm6.59-32.468a2.216,2.216,0,1,0,2.2,2.223A2.215,2.215,0,0,0,17.683,3.564Z" transform="translate(0 0)"/>
      <path id="path1950" class="cls-3" d="M11.688,36.309h0a20.62,20.62,0,0,1-5.823-.886C3.675,34.783,0,33.166,0,29.514V18.443a5.966,5.966,0,0,1,5.865-5.909H17.582A7.448,7.448,0,0,0,24.91,5.163V0h4.4a4.922,4.922,0,0,1,3.9,1.686A9.833,9.833,0,0,1,35.177,5.9c1.206,4.806,1.206,8.229,0,11.816a12.892,12.892,0,0,1-2.1,4.274,4.63,4.63,0,0,1-3.767,1.62H11.731v1.478H23.448v4.431a4.981,4.981,0,0,1-1.825,3.895,10.585,10.585,0,0,1-4.04,2.014A21.122,21.122,0,0,1,11.688,36.309Zm6.632-8.272a2.215,2.215,0,1,0,2.2,2.209A2.207,2.207,0,0,0,18.32,28.037Z" transform="translate(12.688 12.575)"/>
    </g>
    <rect id="Rectangle" class="cls-4" width="6" height="13" transform="translate(0 57)"/>
  </g>
</svg>
